<svg width="49" height="49" viewBox="0 0 49 49" fill="none" xmlns="http://www.w3.org/2000/svg">
<g filter="url(#filter0_d_2_440)">
<circle cx="20.1684" cy="20.1684" r="8.16835" fill="#F8C120"/>
</g>
<path d="M21.6483 18.652L21.0094 18.877C20.9755 18.6544 20.8666 18.4535 20.6826 18.2744C20.4987 18.0905 20.2446 17.9985 19.9203 17.9985C19.6347 17.9985 19.3975 18.0808 19.2087 18.2454C19.0199 18.4099 18.9255 18.6132 18.9255 18.8553C18.9255 19.044 18.9812 19.2038 19.0925 19.3345C19.2087 19.4652 19.3733 19.5547 19.5863 19.6031L20.3559 19.7701C20.7819 19.8621 21.111 20.0363 21.3434 20.2929C21.5757 20.5446 21.6919 20.852 21.6919 21.215C21.6919 21.6313 21.5273 21.9895 21.1982 22.2896C20.869 22.5897 20.4406 22.7398 19.913 22.7398C19.337 22.7398 18.8844 22.5897 18.5552 22.2896C18.2309 21.9847 18.0421 21.624 17.9889 21.2078L18.6714 20.9899C18.7005 21.2997 18.8215 21.5611 19.0345 21.7741C19.2474 21.9871 19.5379 22.0936 19.9057 22.0936C20.2446 22.0936 20.506 22.0161 20.6899 21.8612C20.8738 21.7063 20.9658 21.5103 20.9658 21.2731C20.9658 21.0795 20.9005 20.9125 20.7698 20.7721C20.6391 20.6269 20.4479 20.5277 20.1962 20.4744L19.4628 20.3147C19.0804 20.2324 18.7755 20.0702 18.548 19.8282C18.3205 19.5862 18.2067 19.2788 18.2067 18.9061C18.2067 18.4995 18.3713 18.1437 18.7005 17.8388C19.0345 17.529 19.4362 17.3741 19.9057 17.3741C20.4334 17.3741 20.8375 17.5023 21.1183 17.7589C21.399 18.0154 21.5757 18.3131 21.6483 18.652Z" fill="white"/>
<defs>
<filter id="filter0_d_2_440" x="0" y="0" width="48.3367" height="48.3367" filterUnits="userSpaceOnUse" color-interpolation-filters="sRGB">
<feFlood flood-opacity="0" result="BackgroundImageFix"/>
<feColorMatrix in="SourceAlpha" type="matrix" values="0 0 0 0 0 0 0 0 0 0 0 0 0 0 0 0 0 0 127 0" result="hardAlpha"/>
<feOffset dx="4" dy="4"/>
<feGaussianBlur stdDeviation="8"/>
<feColorMatrix type="matrix" values="0 0 0 0 0 0 0 0 0 0 0 0 0 0 0 0 0 0 0.1 0"/>
<feBlend mode="normal" in2="BackgroundImageFix" result="effect1_dropShadow_2_440"/>
<feBlend mode="normal" in="SourceGraphic" in2="effect1_dropShadow_2_440" result="shape"/>
</filter>
</defs>
</svg>
