<svg width="29" height="29" viewBox="0 0 29 29" fill="none" xmlns="http://www.w3.org/2000/svg">
<path d="M22.0802 0H6.39035C2.86106 0 0 2.86106 0 6.39035V22.0802C0 25.6095 2.86106 28.4706 6.39035 28.4706H22.0802C25.6095 28.4706 28.4706 25.6095 28.4706 22.0802V6.39035C28.4706 2.86106 25.6095 0 22.0802 0Z" fill="#F9F9F9"/>
<path d="M10.9103 12.3151H8.63215V18.9866H10.9103V12.3151Z" fill="#646464"/>
<path d="M10.5273 9.20164C10.3102 9.07017 10.055 9 9.79399 9C9.61983 9 9.44739 9.03124 9.28659 9.09194C9.12578 9.15264 8.97978 9.24159 8.85699 9.35367C8.73419 9.46576 8.63702 9.59878 8.57107 9.74507C8.50512 9.89136 8.47168 10.048 8.47268 10.2061C8.47418 10.443 8.55295 10.6742 8.69904 10.8705C8.84514 11.0668 9.05202 11.2194 9.29359 11.3091C9.53515 11.3988 9.80058 11.4216 10.0564 11.3745C10.3122 11.3275 10.5469 11.2127 10.731 11.0448C10.915 10.8768 11.0401 10.6631 11.0904 10.4306C11.1408 10.1982 11.1142 9.95744 11.014 9.73872C10.9138 9.51999 10.7444 9.3331 10.5273 9.20164Z" fill="#646464"/>
<path d="M14.5671 12.3147H12.3725L12.3649 19H14.643V15.6987C14.643 14.8303 14.8253 13.9895 16.0099 13.9895C17.1945 13.9895 17.1945 14.9888 17.1945 15.7607V18.9862H19.4727V15.3265C19.4727 13.5277 19.0094 12.1493 16.7313 12.1493C16.2971 12.1339 15.8665 12.2258 15.4853 12.4151C15.1041 12.6045 14.7868 12.8842 14.5671 13.2245V12.3147Z" fill="#646464"/>
</svg>
