<svg width="28" height="29" viewBox="0 0 28 29" fill="none" xmlns="http://www.w3.org/2000/svg">
<path d="M28 24.5163C28 25.5651 27.5903 26.5709 26.861 27.3124C26.1317 28.054 25.1425 28.4706 24.1111 28.4706H3.88889C2.85749 28.4706 1.86834 28.054 1.13903 27.3124C0.409721 26.5709 0 25.5651 0 24.5163V3.95425C0 2.90552 0.409721 1.89974 1.13903 1.15817C1.86834 0.416607 2.85749 0 3.88889 0H24.1111C25.1425 0 26.1317 0.416607 26.861 1.15817C27.5903 1.89974 28 2.90552 28 3.95425V24.5163Z" fill="#F9F9F9"/>
<path d="M19.4081 11.0042C19.0106 11.1894 18.5071 11.3633 18.0559 11.4211C18.5147 11.1349 19.2427 10.5391 19.4081 10C18.9795 10.2648 18.2042 10.5476 17.6984 10.6499C17.2945 10.1999 16.7185 10 16.0802 10C14.8541 10 13.9991 11.0918 13.9991 12.3684V13.3158C12.196 13.3158 10.4381 11.8725 9.34408 10.4737C9.14627 10.8262 9.04242 11.2283 9.04343 11.6375C9.04343 12.4992 9.79664 13.3736 10.393 13.7895C10.0292 13.7776 9.34048 13.4858 9.04072 13.3158V13.3428C9.04072 14.464 9.78943 15.2252 10.8041 15.4374C10.6188 15.4909 10.393 15.6842 9.52394 15.6842C9.80611 16.6008 11.2246 17.0854 12.196 17.1053C11.436 17.7244 10.0811 18.0526 9.04072 18.0526C8.86087 18.0526 8.76351 18.0631 8.58997 18.0417C9.57172 18.6954 10.9429 19 12.196 19C16.2785 19 18.5066 15.7231 18.5066 12.6668C18.5066 12.5664 18.5035 12.2301 18.4985 12.1316C18.9349 11.8085 19.1115 11.4703 19.4081 11.0042Z" fill="#646464"/>
</svg>
